# xmcd
#
# Track frame offsets:
#	150
#	14345
#	29618
#	43323
#	60311
#	75398
#	91127
#	109320
#	120594
#	135642
#	153117
#	169941
#	181833
#	195910
#	206974
#
# Disc length: 2931 seconds
#
# Revision: 1
# Processed by: cddbd v1.5.2PL0 Copyright (c) Steve Scherf et al.
# Submitted via: audiograbber 1.83.01
#
DISCID=bf0b710f
DTITLE=HUAPANGOS - EXITOS
DYEAR=1900
DGENRE=KARAOKE
TTITLE0=EL SIETE MARES
TTITLE1=NI CONTIGO NI SIN TI
TTITLE2=EL HIDALGUENSE
TTITLE3=CIELO ROJO
TTITLE4=EL CRICIFIJO DE PIEDRA
TTITLE5=LA VERDOLAGA
TTITLE6=TRES CONSEJOS
TTITLE7=EL AGUACERO
TTITLE8=LOS CAMPEROS
TTITLE9=TATA DIOS
TTITLE10=EL JINETE
TTITLE11=SOLDADO DE LEVITA
TTITLE12=QUE BONITA ES MI TIERRA
TTITLE13=EL MIL AMORES
TTITLE14=LA CANTIMPLORA
EXTD=
EXTT0=
EXTT1=
EXTT2=
EXTT3=
EXTT4=
EXTT5=
EXTT6=
EXTT7=
EXTT8=
EXTT9=
EXTT10=
EXTT11=
EXTT12=
EXTT13=
EXTT14=
PLAYORDER=
